<?xml version="1.0" encoding="utf-8"?>
<!-- Generator: Adobe Illustrator 26.0.2, SVG Export Plug-In . SVG Version: 6.00 Build 0)  -->
<svg version="1.1"
	 id="svg8" xmlns:cc="http://creativecommons.org/ns#" xmlns:dc="http://purl.org/dc/elements/1.1/" xmlns:inkscape="http://www.inkscape.org/namespaces/inkscape" xmlns:rdf="http://www.w3.org/1999/02/22-rdf-syntax-ns#" xmlns:sodipodi="http://sodipodi.sourceforge.net/DTD/sodipodi-0.dtd" xmlns:svg="http://www.w3.org/2000/svg"
	 xmlns="http://www.w3.org/2000/svg" xmlns:xlink="http://www.w3.org/1999/xlink" x="0px" y="0px" viewBox="0 0 595.3 453.5"
	 style="enable-background:new 0 0 595.3 453.5;" xml:space="preserve">
<style type="text/css">
	.st0{fill:#CCCCCC;}
	
		.st1{fill:#999999;stroke:#999999;stroke-width:0.4237;stroke-linecap:square;stroke-linejoin:bevel;stroke-dasharray:1.6946,1.6946;}
	.st2{fill:none;stroke:#CCCCCC;stroke-width:0.75;stroke-miterlimit:11.3386;}
	.st3{fill:none;stroke:#000000;stroke-width:4.5;stroke-linecap:round;stroke-linejoin:bevel;stroke-miterlimit:11.3386;}
	.st4{fill:none;stroke:#E6E6E6;stroke-width:6.2538;stroke-linecap:round;stroke-linejoin:bevel;stroke-miterlimit:11.3386;}
	.st5{fill:none;stroke:#FFCC00;stroke-width:2.25;stroke-linecap:round;stroke-linejoin:bevel;stroke-miterlimit:11.3386;}
	.st6{fill:#B3B3B3;}
	.st7{fill:#666666;}
	
		.st8{fill:none;stroke:#4D4D4D;stroke-width:1.5;stroke-linecap:round;stroke-linejoin:round;stroke-miterlimit:11.3386;stroke-dasharray:1.5,1.5;}
	.st9{fill:none;stroke:#4D4D4D;stroke-width:0.75;stroke-linecap:square;stroke-linejoin:bevel;stroke-miterlimit:11.3386;}
	.st10{fill:none;stroke:#3E3748;stroke-width:0.75;stroke-miterlimit:11.3386;}
	.st11{fill:#E6E6E6;}
	.st12{fill:none;stroke:#F9F9F9;stroke-width:0.75;stroke-linecap:round;stroke-miterlimit:11.3386;}
	
		.st13{fill:none;stroke:#808080;stroke-width:1.5;stroke-linecap:square;stroke-linejoin:bevel;stroke-miterlimit:6.1742;stroke-dasharray:1.5,6;}
	.st14{fill:#808080;stroke:#808080;stroke-width:0.7683;stroke-linecap:round;stroke-linejoin:bevel;stroke-miterlimit:6.1742;}
	.st15{fill:none;stroke:#1A1A1A;stroke-width:6;stroke-linecap:round;stroke-miterlimit:11.3386;}
	.st16{fill:#1A1A1A;stroke:#1A1A1A;stroke-width:6;stroke-linecap:round;stroke-miterlimit:11.3386;}
	.st17{fill:#1A1A1A;}
	.st18{fill:#1A1A1A;stroke:#000000;stroke-width:9;stroke-linecap:round;stroke-miterlimit:11.3386;}
	.st19{fill:#1A1A1A;stroke:#1A1A1A;stroke-width:9;stroke-linecap:round;stroke-miterlimit:11.3386;}
	.st20{fill:#B3B3B3;stroke:#CCCCCC;stroke-width:5.2483;stroke-linecap:round;stroke-linejoin:bevel;stroke-miterlimit:11.3386;}
	.st21{fill:#AA0000;}
	.st22{fill:#4D4D4D;}
	
		.st23{fill:none;stroke:#808080;stroke-width:1.5;stroke-linecap:round;stroke-linejoin:bevel;stroke-miterlimit:11.3386;stroke-dasharray:1.5,6;}
	.st24{fill:none;stroke:#808080;stroke-width:1.4318;stroke-linecap:round;stroke-linejoin:bevel;stroke-miterlimit:11.3386;}
	.st25{fill:#F9F9F9;}
	.st26{fill-opacity:0;stroke:#CCCCCC;stroke-width:5.3011;stroke-linecap:square;stroke-linejoin:bevel;stroke-miterlimit:11.3386;}
	
		.st27{fill-opacity:0.9894;stroke:#CCCCCC;stroke-width:5.3011;stroke-linecap:square;stroke-linejoin:bevel;stroke-miterlimit:11.3386;}
	.st28{fill:#808080;}
	
		.st29{fill:none;stroke:#808080;stroke-width:1.9092;stroke-linecap:round;stroke-linejoin:bevel;stroke-miterlimit:14.4319;stroke-dasharray:1.9092,7.6369;}
	.st30{fill:none;stroke:#808080;stroke-width:1.8224;stroke-linecap:round;stroke-linejoin:bevel;stroke-miterlimit:14.4319;}
	
		.st31{fill:none;stroke:#808080;stroke-width:0.6142;stroke-linecap:square;stroke-linejoin:bevel;stroke-miterlimit:2.528;stroke-dasharray:0.6142,2.4567;}
	.st32{fill:#808080;stroke:#808080;stroke-width:0.3146;stroke-linecap:round;stroke-linejoin:bevel;stroke-miterlimit:2.528;}
	.st33{fill:#999999;}
	.st34{fill:#CCCCCC;stroke:#B3B3B3;stroke-width:1.5;stroke-linecap:square;stroke-linejoin:bevel;stroke-miterlimit:11.3386;}
</style>
<sodipodi:namedview  bordercolor="#666666" borderopacity="1.0" id="base" inkscape:current-layer="layer3" inkscape:cx="395.57559" inkscape:cy="319.42132" inkscape:document-units="mm" inkscape:pageopacity="0.0" inkscape:pageshadow="2" inkscape:snap-global="false" inkscape:window-height="1052" inkscape:window-maximized="1" inkscape:window-width="1920" inkscape:window-x="0" inkscape:window-y="28" inkscape:zoom="2.8" pagecolor="#ffffff" showgrid="false">
	</sodipodi:namedview>
<g id="layer2" transform="translate(0,-137)" inkscape:groupmode="layer" inkscape:label="Layer 2">
</g>
<g id="g1342" transform="translate(-0.56069369,68.739747)">
	<path id="path1021" inkscape:connector-curvature="0" sodipodi:nodetypes="cssssssssc" class="st0" d="M274,234.9
		c27.8-20.2-42-8.8-42.7-8.8c-0.2,0.6,0.6,6.3-0.8,5.6C231,231.3,274,236.3,274,234.9z"/>
	<path id="rect1023" class="st1" d="M238.8,222.3l-26.6,6.2C205.4,241.7,248.8,230.6,238.8,222.3z"/>
	<g id="g1057" transform="translate(0,-1.1666666e-6)">
		<g id="g946" transform="matrix(-0.90488797,-0.42564981,-0.42564981,0.90488797,368.79249,82.379407)">
			<path id="path938" inkscape:connector-curvature="0" class="st2" d="M-155,161.6l29.2-80.4"/>
			<path id="path940" inkscape:connector-curvature="0" class="st2" d="M-40.6,116L-121,87.4"/>
			<path id="path942" inkscape:connector-curvature="0" class="st2" d="M-86.7,1.1l-28.4,81.4"/>
			<path id="path944" inkscape:connector-curvature="0" class="st2" d="M-200,47.5l76.6,28.9"/>
		</g>
		<g id="g926">
			<path id="path914" inkscape:connector-curvature="0" class="st2" d="M408,287.4l29.2-80.4"/>
			<path id="path916" inkscape:connector-curvature="0" class="st2" d="M522.4,241.9L442,213.2"/>
			<path id="path918" inkscape:connector-curvature="0" class="st2" d="M476.3,127l-28.4,81.4"/>
			<path id="path920" inkscape:connector-curvature="0" class="st2" d="M363,173.3l76.6,28.9"/>
		</g>
		<g id="g936" transform="rotate(-9.9446677,156.52824,165.60684)">
			<path id="path928" inkscape:connector-curvature="0" class="st2" d="M396.5,336.2l29.2-80.4"/>
			<path id="path930" inkscape:connector-curvature="0" class="st2" d="M510.9,290.7L430.5,262"/>
			<path id="path932" inkscape:connector-curvature="0" class="st2" d="M464.8,175.8l-28.4,81.4"/>
			<path id="path934" inkscape:connector-curvature="0" class="st2" d="M351.5,222.1l76.6,28.9"/>
		</g>
		<g id="g956" transform="matrix(-0.96385331,-0.26643349,-0.26643349,0.96385331,351.64077,47.683094)">
			<path id="path948" inkscape:connector-curvature="0" class="st2" d="M-165.2,209.6l29.2-80.4"/>
			<path id="path950" inkscape:connector-curvature="0" class="st2" d="M-50.9,164.1l-80.4-28.7"/>
			<path id="path952" inkscape:connector-curvature="0" class="st2" d="M-96.9,49.2l-28.4,81.4"/>
			<path id="path954" inkscape:connector-curvature="0" class="st2" d="M-210.2,95.5l76.6,28.9"/>
		</g>
		<g id="g966" transform="rotate(-35.796467,156.59921,165.68719)">
			<path id="path958" inkscape:connector-curvature="0" class="st2" d="M329.5,447l29.2-80.4"/>
			<path id="path960" inkscape:connector-curvature="0" class="st2" d="M443.9,401.4l-80.4-28.7"/>
			<path id="path962" inkscape:connector-curvature="0" class="st2" d="M397.8,286.5L369.4,368"/>
			<path id="path964" inkscape:connector-curvature="0" class="st2" d="M284.5,332.9l76.6,28.9"/>
		</g>
		<g id="g976" transform="rotate(-45.741135,156.57864,165.675)">
			<path id="path968" inkscape:connector-curvature="0" class="st2" d="M291.6,479.8l29.2-80.4"/>
			<path id="path970" inkscape:connector-curvature="0" class="st2" d="M406,434.3l-80.4-28.7"/>
			<path id="path972" inkscape:connector-curvature="0" class="st2" d="M359.9,319.4l-28.4,81.4"/>
			<path id="path974" inkscape:connector-curvature="0" class="st2" d="M246.6,365.7l76.6,28.9"/>
		</g>
		<g id="g986" transform="matrix(-0.98292037,0.18403139,0.18403139,0.98292037,279.98179,-25.997221)">
			<path id="path978" inkscape:connector-curvature="0" class="st2" d="M-151.9,339.4l29.2-80.4"/>
			<path id="path980" inkscape:connector-curvature="0" class="st2" d="M-37.5,293.8l-80.4-28.7"/>
			<path id="path982" inkscape:connector-curvature="0" class="st2" d="M-83.6,178.9l-28.4,81.4"/>
			<path id="path984" inkscape:connector-curvature="0" class="st2" d="M-196.9,225.3l76.6,28.9"/>
		</g>
		<g id="g996" transform="matrix(-0.9376203,0.34766101,0.34766101,0.9376203,245.7759,-44.107224)">
			<path id="path988" inkscape:connector-curvature="0" class="st2" d="M-132.1,384.3l29.2-80.4"/>
			<path id="path990" inkscape:connector-curvature="0" class="st2" d="M-17.7,338.8l-80.4-28.7"/>
			<path id="path992" inkscape:connector-curvature="0" class="st2" d="M-63.8,223.9l-28.4,81.4"/>
			<path id="path994" inkscape:connector-curvature="0" class="st2" d="M-177.1,270.2l76.6,28.9"/>
		</g>
		<path id="path887" class="st3" d="M442.1,113c125.5,2.1,125.5,188.8,0,190.9C316.7,301.7,316.7,115.1,442.1,113z"/>
		<path id="circle889" class="st4" d="M442.1,119.2c117.3,2,117.3,176.6,0,178.5C324.8,295.7,324.8,121.1,442.1,119.2z"/>
		<path id="circle891" class="st5" d="M442.1,115.4c122.2,2.1,122.2,183.9,0,186C319.9,299.3,319.9,117.5,442.1,115.4z"/>
		<path id="circle912" class="st6" d="M442.1,201.7c8.7-0.1,8.7,13.6,0,13.4C433.4,215.3,433.4,201.6,442.1,201.7z"/>
		<g id="g1006" transform="rotate(11.070055,156.52824,165.60684)">
			<path id="path998" inkscape:connector-curvature="0" class="st2" d="M410.7,231.7l29.2-80.4"/>
			<path id="path1000" inkscape:connector-curvature="0" class="st2" d="M525,186.2l-80.4-28.7"/>
			<path id="path1002" inkscape:connector-curvature="0" class="st2" d="M479,71.3l-28.4,81.4"/>
			<path id="path1004" inkscape:connector-curvature="0" class="st2" d="M365.7,117.6l76.6,28.9"/>
		</g>
	</g>
	<g id="g1157" transform="translate(-101.56242,-1.1666666e-6)">
		<g id="g1067" transform="matrix(-0.90488797,-0.42564981,-0.42564981,0.90488797,368.79249,82.379407)">
			<path id="path1059" inkscape:connector-curvature="0" class="st2" d="M13.6,240.9l29.2-80.4"/>
			<path id="path1061" inkscape:connector-curvature="0" class="st2" d="M128,195.3l-80.4-28.7"/>
			<path id="path1063" inkscape:connector-curvature="0" class="st2" d="M81.9,80.4l-28.4,81.4"/>
			<path id="path1065" inkscape:connector-curvature="0" class="st2" d="M-31.4,126.8l76.6,28.9"/>
		</g>
		<g id="g1077">
			<path id="path1069" inkscape:connector-curvature="0" class="st2" d="M221.7,287.4l29.2-80.4"/>
			<path id="path1071" inkscape:connector-curvature="0" class="st2" d="M336,241.9l-80.4-28.7"/>
			<path id="path1073" inkscape:connector-curvature="0" class="st2" d="M290,127l-28.4,81.4"/>
			<path id="path1075" inkscape:connector-curvature="0" class="st2" d="M176.7,173.3l76.6,28.9"/>
		</g>
		<g id="g1087" transform="rotate(-9.9446677,156.52824,165.60684)">
			<path id="path1079" inkscape:connector-curvature="0" class="st2" d="M213,304l29.2-80.4"/>
			<path id="path1081" inkscape:connector-curvature="0" class="st2" d="M327.3,258.5L247,229.8"/>
			<path id="path1083" inkscape:connector-curvature="0" class="st2" d="M281.3,143.6L252.9,225"/>
			<path id="path1085" inkscape:connector-curvature="0" class="st2" d="M168,189.9l76.6,28.9"/>
		</g>
		<g id="g1097" transform="matrix(-0.96385331,-0.26643349,-0.26643349,0.96385331,351.64077,47.683094)">
			<path id="path1089" inkscape:connector-curvature="0" class="st2" d="M14.3,259.3l29.2-80.4"/>
			<path id="path1091" inkscape:connector-curvature="0" class="st2" d="M128.7,213.7l-80.4-28.7"/>
			<path id="path1093" inkscape:connector-curvature="0" class="st2" d="M82.7,98.8l-28.4,81.4"/>
			<path id="path1095" inkscape:connector-curvature="0" class="st2" d="M-30.7,145.1L46,174.1"/>
		</g>
		<g id="g1107" transform="rotate(-35.796467,156.59921,165.68719)">
			<path id="path1099" inkscape:connector-curvature="0" class="st2" d="M178.4,338l29.2-80.4"/>
			<path id="path1101" inkscape:connector-curvature="0" class="st2" d="M292.7,292.5l-80.4-28.7"/>
			<path id="path1103" inkscape:connector-curvature="0" class="st2" d="M246.7,177.6L218.3,259"/>
			<path id="path1105" inkscape:connector-curvature="0" class="st2" d="M133.4,223.9l76.6,28.9"/>
		</g>
		<g id="g1117" transform="rotate(-45.741135,156.57864,165.675)">
			<path id="path1109" inkscape:connector-curvature="0" class="st2" d="M161.6,346.4l29.2-80.4"/>
			<path id="path1111" inkscape:connector-curvature="0" class="st2" d="M276,300.8l-80.4-28.7"/>
			<path id="path1113" inkscape:connector-curvature="0" class="st2" d="M229.9,185.9l-28.4,81.4"/>
			<path id="path1115" inkscape:connector-curvature="0" class="st2" d="M116.6,232.3l76.6,28.9"/>
		</g>
		<g id="g1127" transform="matrix(-0.98292037,0.18403139,0.18403139,0.98292037,279.98179,-25.997221)">
			<path id="path1119" inkscape:connector-curvature="0" class="st2" d="M31.2,305.1l29.2-80.4"/>
			<path id="path1121" inkscape:connector-curvature="0" class="st2" d="M145.6,259.5l-80.4-28.7"/>
			<path id="path1123" inkscape:connector-curvature="0" class="st2" d="M99.6,144.6l-28.4,81.4"/>
			<path id="path1125" inkscape:connector-curvature="0" class="st2" d="M-13.8,191l76.6,28.9"/>
		</g>
		<g id="g1137" transform="matrix(-0.9376203,0.34766101,0.34766101,0.9376203,245.7759,-44.107224)">
			<path id="path1129" inkscape:connector-curvature="0" class="st2" d="M42.6,319.5l29.2-80.4"/>
			<path id="path1131" inkscape:connector-curvature="0" class="st2" d="M157,274l-80.4-28.7"/>
			<path id="path1133" inkscape:connector-curvature="0" class="st2" d="M110.9,159.1l-28.4,81.4"/>
			<path id="path1135" inkscape:connector-curvature="0" class="st2" d="M-2.4,205.4l76.6,28.9"/>
		</g>
		<path id="circle1139" class="st3" d="M255.8,113c125.5,2.1,125.5,188.8,0,190.9C130.3,301.7,130.4,115.1,255.8,113z"/>
		<path id="circle1141" class="st4" d="M255.8,119.2c117.3,2,117.3,176.6,0,178.5C138.5,295.7,138.5,121.1,255.8,119.2z"/>
		<path id="circle1143" class="st5" d="M255.8,115.4c122.2,2.1,122.2,183.9,0,186C133.6,299.3,133.6,117.5,255.8,115.4z"/>
		<path id="circle1145" class="st6" d="M255.8,201.7c8.7-0.1,8.7,13.6,0,13.4C247.1,215.3,247.1,201.6,255.8,201.7z"/>
		<g id="g1155" transform="rotate(11.070055,156.52824,165.60684)">
			<path id="path1147" inkscape:connector-curvature="0" class="st2" d="M227.8,267.5l29.2-80.4"/>
			<path id="path1149" inkscape:connector-curvature="0" class="st2" d="M342.2,221.9l-80.4-28.7"/>
			<path id="path1151" inkscape:connector-curvature="0" class="st2" d="M296.1,107l-28.4,81.4"/>
			<path id="path1153" inkscape:connector-curvature="0" class="st2" d="M182.8,153.4l76.6,28.9"/>
		</g>
		<path id="path951" inkscape:connector-curvature="0" class="st7" d="M321.3,43.1c-2.4-7.8,4.1-5.7,6.1-0.8
			C327.4,42.4,321.3,43.1,321.3,43.1z"/>
	</g>
	<path id="path1011" inkscape:connector-curvature="0" sodipodi:nodetypes="cssssssssc" class="st8" d="M304.1,227.9
		c-10.8,57.7-93.9,23.2-156.6,23.8c-6.1-8.6,14.8-13.6,9-21.9C89.5,175.1,322.8,182.4,304.1,227.9L304.1,227.9z"/>
	<path id="path1014" inkscape:connector-curvature="0" sodipodi:nodetypes="cssssssssc" class="st9" d="M304.1,227.9
		c-10.8,57.3-92.2,23.8-154.6,23.7c-9-8.4,12.9-13.5,7-21.7C91.9,174.6,322.5,182.6,304.1,227.9L304.1,227.9z"/>
	<path id="path983" inkscape:connector-curvature="0" sodipodi:nodetypes="csccc" class="st10" d="M453.4,45.5
		c-25.2-80-58.1,13.6-96.8,26.7c-40.4,8-133-26.8-150.4,36.2"/>
	<path id="path963" inkscape:connector-curvature="0" sodipodi:nodetypes="ccsscaccsscccc" class="st11" d="M440.8,55.9
		c15.4-1.3,7.2-6.6,12.2-11.4c9.2,10.8,13.9,23.4,10.3,41.2C459.3,37.9,447.5,85.8,440.8,55.9z"/>
	<path id="path959" inkscape:connector-curvature="0" sodipodi:nodetypes="cccccccccccc" d="M401,105.6
		c-11.1,0.2,34.3,117.8,43.1,101.2C423.2,186.1,416.1,123,401,105.6z"/>
	<path id="path1240" inkscape:connector-curvature="0" class="st11" d="M389.6,61.5c-6.8-14.9,5.4-10.5,13.5-11
		c4.7,5.2,8.3-2.8,6.2-6.5c-30.4,3.1-34.7-9.3-25.4,19.2L389.6,61.5z"/>
	<path id="path1207" inkscape:connector-curvature="0" class="st11" d="M225.1,64.5c0-6.1-11.6-24.5-0.1-23.5
		C226.6,46.2,239.6,67.9,225.1,64.5z"/>
	<path id="path991" inkscape:connector-curvature="0" class="st12" d="M223.6,42.3l6.5,20.6"/>
	<g id="g997" transform="matrix(0.54452736,0,0,0.54452736,2.0482765,72.020872)">
		<path id="circle993" class="st13" d="M279.5,226.8c31.7,0.1,31.7,48.3,0,48.5C247.8,275.2,247.8,226.9,279.5,226.8z"/>
		<path id="circle995" class="st14" d="M279.5,228.3c29.8,0.1,29.8,45.5,0,45.6C249.6,273.7,249.6,228.4,279.5,228.3z"/>
	</g>
	<path id="path1159" inkscape:connector-curvature="0" class="st15" d="M158.1,206.9l114.4,21.2"/>
	<path id="path1177" inkscape:connector-curvature="0" sodipodi:nodetypes="cc" class="st16" d="M155.4,206.5l77.3-130.3"/>
	<path id="path1179" inkscape:connector-curvature="0" sodipodi:nodetypes="acccca" class="st17" d="M228.6,63.3
		c-9.8-11,41.6,200.9,48.2,163.6C273.3,226.9,237.7,52.3,228.6,63.3z"/>
	<path id="path1181" inkscape:connector-curvature="0" sodipodi:nodetypes="cc" class="st18" d="M394.2,96L272.5,228.1"/>
	<path id="path1183" inkscape:connector-curvature="0" sodipodi:nodetypes="cc" class="st19" d="M386.5,78.1l-153-0.8"/>
	<path id="path1185" inkscape:connector-curvature="0" sodipodi:nodetypes="sccccs" class="st17" d="M389.2,69.5
		c-11.4-2.1,6.1,30.9,4.7,34.5C410,122.5,397.1,63.1,389.2,69.5z"/>
	<path id="rect1203" class="st20" d="M383.1,68.5c0.1,0.1,10-2.9,9.8-2.4C392.8,66,382.8,69.1,383.1,68.5z"/>
	<path id="path1209" inkscape:connector-curvature="0" sodipodi:nodetypes="ssssccscs" class="st21" d="M183.9,18.9
		c10.5,41.6,142.5,1.1,38.2,1.6C196,22.2,186.7,8.7,183.9,18.9z"/>
	<path id="circle1145-3" class="st22" d="M154.3,203.7c6.1-0.1,6.1,9.5,0,9.5C148.1,213.2,148.1,203.6,154.3,203.7z"/>
	<g id="g1232">
		<path id="path1226" class="st23" d="M273.4,203.5c31.9,0.5,31.9,47.9,0,48.5C241.5,251.4,241.6,204,273.4,203.5z"/>
		<path id="circle1228" class="st24" d="M273.4,204.6c30.4,0.5,30.4,45.8,0,46.3C243,250.4,243,205.1,273.4,204.6z"/>
	</g>
	<path id="rect957" class="st20" d="M394.6,108.4c0.1,0.1,10-2.9,9.8-2.4C404.3,106,394.4,109,394.6,108.4z"/>
	<path id="path965" class="st0" d="M456.1,56.2c2.1,0,2.1,3.3,0,3.2C454,59.5,454,56.2,456.1,56.2z"/>
	<path id="path967" inkscape:connector-curvature="0" sodipodi:nodetypes="cc" class="st12" d="M385.5,62.2l-4.2-15.1"/>
	<path id="path969" inkscape:connector-curvature="0" sodipodi:nodetypes="ccccccc" class="st25" d="M381.1,46.8
		c1.3,1.1,25.8-2.7,22.4,2.6C397.2,49.4,386,51.3,381.1,46.8z"/>
	<path id="rect1205" class="st6" d="M381.9,63.2c2,0.3,11-5.2,10,0.3C389.9,63.2,380.9,68.7,381.9,63.2z"/>
	<path id="path976" inkscape:connector-curvature="0" sodipodi:nodetypes="ccccc" class="st26" d="M204.8,109.9
		c-0.8-2-8.3,14.7-8.7,14.6C196.2,124.7,204.8,109.9,204.8,109.9z"/>
	<path id="path979" inkscape:connector-curvature="0" sodipodi:nodetypes="ccccc" class="st26" d="M204.6,114.4
		c-1.8,0.9,6.5,3.4,6.5,3.8C211.3,118.1,204.5,114.4,204.6,114.4z"/>
	<path id="path981" inkscape:connector-curvature="0" sodipodi:nodetypes="ccc" class="st10" d="M453.4,45.5
		c-13.1-62.7-69.6-38-46.4,54.5"/>
	<path id="rect985" class="st6" d="M243.5,70.8c1,0.6,10.1-1.5,8.6,1.7C251.9,73.1,239.9,74.2,243.5,70.8z"/>
	<path id="rect987" class="st6" d="M290.6,70.8c1,0.6,10.1-1.5,8.6,1.7C299,73.1,287.1,74.2,290.6,70.8z"/>
	<path id="rect989" class="st6" d="M346.5,70.8c1,0.6,10.1-1.5,8.6,1.7C354.9,73.1,343,74.2,346.5,70.8z"/>
	<path id="rect971" inkscape:connector-curvature="0" sodipodi:nodetypes="ccccc" class="st27" d="M407.3,102.4
		c1.2-1.8,5,16.2,5.4,16.1C412.5,118.7,407.3,102.4,407.3,102.4z"/>
	
		<path id="path1045" inkscape:connector-curvature="0" inkscape:transform-center-x="0.15341984" inkscape:transform-center-y="-1.8073836" sodipodi:nodetypes="ccccccccccc" class="st28" d="
		M298.5,243.1c-24.1-10.2-21.9-12.6-32.1,12.4c2.2-25.8,4.3-24.1-21.7-26.7c0,0,22.6-5.5,22.6-5.5l-3.9-23.4
		c12.8,24,10.4,21.7,33.2,8.8C278.2,228.6,278,225.5,298.5,243.1z"/>
	<g id="g1238" transform="matrix(1.2728104,0,0,1.2728104,-26.41306,-47.156172)">
		<path id="circle1234" class="st29" d="M235.6,191.7c31.9,0.5,31.9,47.9,0,48.5C203.7,239.7,203.7,192.3,235.6,191.7z"/>
		<path id="circle1236" class="st30" d="M235.6,192.8c30.4,0.5,30.4,45.8,0,46.3C205.1,238.6,205.2,193.4,235.6,192.8z"/>
	</g>
	<g id="g1009" transform="matrix(0.22295302,0,0,0.22295302,32.614638,136.22551)">
		<path id="circle1005" class="st31" d="M538.2,410.5c31.5-0.5,31.5,49,0,48.5C506.8,459.5,506.8,410.1,538.2,410.5z"/>
		<path id="circle1007" class="st32" d="M538.2,412c29.6-0.4,29.6,46,0,45.6C508.6,458,508.6,411.5,538.2,412z"/>
	</g>
	<g id="g1003" transform="matrix(0.22295302,0,0,0.22295302,32.146917,141.30362)">
		<path id="circle999" class="st31" d="M534.4,452.3c31.5-0.5,31.5,49,0,48.5C502.9,501.3,502.9,451.9,534.4,452.3z"/>
		<path id="circle1001" class="st32" d="M534.4,453.8c29.6-0.4,29.6,46,0,45.6C504.8,499.8,504.8,453.3,534.4,453.8z"/>
	</g>
	<path id="path953" inkscape:connector-curvature="0" sodipodi:nodetypes="ccccccccccsccc" class="st21" d="M408.4,44.5
		C395.1,54.4,429,54.7,434.2,60c24.3,18.6-25.4,28-28.9,29.3C401.2,113.4,502.5,62.4,408.4,44.5z"/>
	<path id="rect1016" inkscape:connector-curvature="0" sodipodi:nodetypes="cssssssssc" class="st0" d="M273.7,235.1
		c-27.8-20.2,42-8.8,42.7-8.8c0.2,0.6-0.6,6.3,0.8,5.6C316.6,231.4,273.7,236.4,273.7,235.1z"/>
	<path id="rect1019" class="st1" d="M307.4,226.9l27.2-2.7C345.2,234.6,300.5,238,307.4,226.9z"/>
	<path id="path1047" class="st7" d="M321.5,225.6c4.5-0.1,4.5,7.3,0,7.2C317,232.8,317,225.5,321.5,225.6z"/>
	<path id="ellipse1065" class="st33" d="M274,224.4c5.7-0.1,5.7,9.2,0,9.1C268.2,233.6,268.2,224.3,274,224.4z"/>
</g>
<g id="g1353">
	<path id="rect1346" inkscape:connector-curvature="0" sodipodi:nodetypes="cssssssssc" class="st0" d="M353.7,181.7
		c1.1-5.1,10.2,7.5,11.9,7.7C381.2,209.6,354.6,187.8,353.7,181.7z"/>
	<path id="path1349" class="st34" d="M364.2,188c4.7-0.1,4.7,7.3,0,7.2C359.6,195.3,359.6,187.9,364.2,188z"/>
</g>
</svg>
