<?xml version="1.0" encoding="UTF-8" standalone="no"?>
<svg id="svg5535" xmlns:rdf="http://www.w3.org/1999/02/22-rdf-syntax-ns#" xmlns="http://www.w3.org/2000/svg" height="259.91mm" width="543.28mm" version="1.1" xmlns:cc="http://creativecommons.org/ns#" xmlns:dc="http://purl.org/dc/elements/1.1/" viewBox="0 0 1925 920.93782">
<g id="layer1" transform="translate(1171.1 -91.893)">
<g id="g7579">
<path id="rect6287" d="m-888.6 214.45c-7.2632-0.34437-13.709 4.8373-14.805 12.189l-24.764 166.11c-1.1691 7.8423 4.2045 15.098 12.047 16.268l7.5117 1.1191c7.8423 1.1691 15.097-4.2026 16.266-12.045l24.764-166.11c1.1691-7.8423-4.2026-15.097-12.045-16.266l-7.5117-1.1211c-0.49015-0.0731-0.97868-0.11962-1.4629-0.14258zm145.23 0c-7.2632-0.34437-13.707 4.8373-14.803 12.189l-24.764 166.11c-1.1691 7.8423 4.2026 15.097 12.045 16.266l7.5117 1.1191c7.8423 1.1691 15.097-4.2026 16.266-12.045l24.764-166.11c1.1691-7.8423-4.2026-15.097-12.045-16.266l-7.5117-1.1211c-0.49014-0.0731-0.97867-0.11962-1.4629-0.14258zm160 0c-7.2632-0.34437-13.709 4.8373-14.805 12.189l-24.762 166.11c-1.1691 7.8423 4.2026 15.098 12.045 16.268l7.5117 1.1191c7.8423 1.1691 15.097-4.2026 16.266-12.045l24.764-166.11c1.1691-7.8423-4.2026-15.097-12.045-16.266l-7.5117-1.1211c-0.49014-0.0731-0.97867-0.11962-1.4629-0.14258zm155 0c-7.2632-0.34437-13.707 4.8373-14.803 12.189l-24.764 166.11c-1.1691 7.8423 4.2026 15.097 12.045 16.266l7.5117 1.1191c7.8423 1.1691 15.097-4.2026 16.266-12.045l24.764-166.11c1.1691-7.8423-4.2026-15.097-12.045-16.266l-7.5117-1.1211c-0.49014-0.0731-0.97867-0.11962-1.4629-0.14258zm160 0c-7.2632-0.34437-13.709 4.8373-14.805 12.189l-24.762 166.11c-1.1691 7.8423 4.2026 15.098 12.045 16.268l7.5117 1.1191c7.8423 1.1691 15.097-4.2026 16.266-12.045l24.764-166.11c1.1691-7.8423-4.2026-15.097-12.045-16.266l-7.5117-1.1211c-0.49014-0.0731-0.97867-0.11962-1.4629-0.14258zm155 0c-7.2632-0.34437-13.707 4.8373-14.803 12.189l-24.764 166.11c-1.1691 7.8423 4.2026 15.097 12.045 16.266l7.5117 1.1191c7.8423 1.1691 15.097-4.2026 16.266-12.045l24.764-166.11c1.1691-7.8423-4.2026-15.097-12.045-16.266l-7.5117-1.1211c-0.49014-0.0731-0.97867-0.11962-1.4629-0.14258zm160 0c-7.2632-0.34437-13.709 4.8373-14.805 12.189l-24.759 166.11c-1.1691 7.8423 4.2026 15.098 12.045 16.268l7.5117 1.1191c7.8423 1.1691 15.097-4.2026 16.266-12.045l24.763-166.12c1.1691-7.8423-4.2026-15.097-12.045-16.266l-7.5117-1.1211c-0.49015-0.0731-0.97868-0.11962-1.4629-0.14258zm155 0c-7.2632-0.34437-13.707 4.8373-14.803 12.189l-24.764 166.11c-1.1691 7.8423 4.2026 15.097 12.045 16.266l7.5117 1.1191c7.8423 1.1691 15.097-4.2026 16.266-12.045l24.764-166.11c1.1691-7.8423-4.2026-15.097-12.045-16.266l-7.5117-1.1211c-0.49014-0.0731-0.97867-0.11962-1.4629-0.14258zm160 0c-7.2632-0.34437-13.709 4.8373-14.805 12.189l-24.762 166.11c-1.1691 7.8423 4.2026 15.098 12.045 16.268l7.5117 1.1191c7.8423 1.1691 15.097-4.2026 16.266-12.045l24.764-166.11c1.1691-7.8423-4.2026-15.097-12.045-16.266l-7.5117-1.1211c-0.49014-0.0731-0.97867-0.11962-1.4629-0.14258zm155 0c-7.2632-0.34437-13.707 4.8373-14.803 12.189l-24.764 166.11c-1.1691 7.8423 4.2026 15.097 12.045 16.266l7.5117 1.1191c7.8423 1.1691 15.097-4.2026 16.266-12.045l24.764-166.11c1.1691-7.8423-4.2026-15.097-12.045-16.266l-7.5117-1.1211c-0.49014-0.0731-0.97867-0.11962-1.4629-0.14258zm160 0c-7.2632-0.34437-13.709 4.8373-14.805 12.189l-24.762 166.11c-1.1691 7.8423 4.2026 15.098 12.045 16.268l7.5117 1.1191c7.8423 1.1691 15.097-4.2026 16.266-12.045l24.764-166.11c1.1691-7.8423-4.2026-15.097-12.045-16.266l-7.5117-1.1211c-0.49014-0.0731-0.97867-0.11962-1.4629-0.14258zm-1405.7 392.38c-7.2632-0.34437-13.709 4.8373-14.805 12.189l-24.762 166.11c-1.1691 7.8423 4.2026 15.097 12.045 16.266l7.5117 1.1211c7.8423 1.1691 15.097-4.2046 16.266-12.047l24.764-166.11c1.1691-7.8423-4.2026-15.097-12.045-16.266l-7.5117-1.1192c-0.49014-0.0731-0.97867-0.12157-1.4629-0.14453zm160 0c-7.2632-0.34437-13.709 4.8373-14.805 12.189l-24.764 166.11c-1.1691 7.8423 4.2045 15.097 12.047 16.266l7.5117 1.1191c7.8423 1.1691 15.097-4.2026 16.266-12.045l24.764-166.11c1.1691-7.8423-4.2026-15.097-12.045-16.266l-7.5117-1.1192c-0.49014-0.0731-0.97867-0.12157-1.4629-0.14453zm155 0c-7.2632-0.34437-13.709 4.8373-14.805 12.189l-24.762 166.11c-1.1691 7.8423 4.2026 15.097 12.045 16.266l7.5117 1.1211c7.8423 1.1691 15.097-4.2046 16.266-12.047l24.764-166.11c1.1691-7.8423-4.2026-15.097-12.045-16.266l-7.5117-1.1192c-0.49014-0.0731-0.97867-0.12157-1.4629-0.14453zm160 0c-7.2632-0.34437-13.709 4.8373-14.805 12.189l-24.764 166.11c-1.1691 7.8423 4.2045 15.097 12.047 16.266l7.5117 1.1191c7.8423 1.1691 15.097-4.2026 16.266-12.045l24.764-166.11c1.1691-7.8423-4.2026-15.097-12.045-16.266l-7.5117-1.1192c-0.49014-0.0731-0.97867-0.12157-1.4629-0.14453zm155 0c-7.2632-0.34437-13.709 4.8373-14.805 12.189l-24.762 166.11c-1.1691 7.8423 4.2026 15.097 12.045 16.266l7.5117 1.1211c7.8423 1.1691 15.097-4.2046 16.266-12.047l24.764-166.11c1.1691-7.8423-4.2026-15.097-12.045-16.266l-7.5117-1.1192c-0.49015-0.0731-0.97868-0.12157-1.4629-0.14453zm160 0c-7.2632-0.34437-13.709 4.8373-14.805 12.189l-24.748 166.12c-1.1691 7.8423 4.2045 15.097 12.047 16.266l7.5117 1.1191c7.8423 1.1691 15.097-4.2026 16.266-12.045l24.763-166.11c1.1691-7.8423-4.2026-15.097-12.045-16.266l-7.5117-1.1192c-0.49015-0.0731-0.97868-0.12157-1.4629-0.14453zm155 0c-7.2632-0.34437-13.709 4.8373-14.805 12.189l-24.762 166.11c-1.1691 7.8423 4.2026 15.097 12.045 16.266l7.5117 1.1191c7.8423 1.1691 15.097-4.2026 16.266-12.045l24.764-166.11c1.1691-7.8423-4.2026-15.097-12.045-16.266l-7.5117-1.1192c-0.49014-0.0731-0.97867-0.12157-1.4629-0.14453zm160 0c-7.2632-0.34437-13.709 4.8373-14.805 12.189l-24.764 166.11c-1.1691 7.8423 4.2045 15.097 12.047 16.266l7.5117 1.1191c7.8423 1.1691 15.097-4.2026 16.266-12.045l24.764-166.11c1.1691-7.8423-4.2026-15.097-12.045-16.266l-7.5117-1.1192c-0.49014-0.0731-0.97867-0.12157-1.4629-0.14453zm-1305-23.612c-7.2632-0.34437-13.707 4.8353-14.803 12.188l-24.764 166.11c-1.1691 7.8423 4.2026 15.097 12.045 16.266l7.5117 1.1211c7.8423 1.1691 15.096-4.2046 16.266-12.047l24.764-166.11c1.1691-7.8423-4.2026-15.098-12.045-16.268l-7.5117-1.1192c-0.49014-0.0731-0.97867-0.11962-1.4629-0.14257z" fill="#808080"/>
<path id="rect6278" d="m-1143.6 464.86v30h275.01v155h-270.01v130h290.01v-80h20v-205h1582.5v-30h-1897.5z" fill="#dfa47c"/>
<g>
<path id="path24" d="m-851.07 486.89v187.5l-52.5 7.6484v1.6348l-179.85 19.264c-19.751 2.1162-36.263 15.963-41.785 35.043l-5.8692 20.273-40 23.031v175.61h71.066c-7.34-15.024-11.284-32.011-10.799-49.967 1.5313-56.801 47.948-103 104.75-104.28 60.368-1.355 109.73 47.176 109.73 107.24 0 16.865-3.9028 32.814-10.838 47.012h3.5878 110 944.84c-8.635-16.401-13.182-35.29-12.209-55.33 2.6588-54.784 46.84-99.163 101.61-102.02 61.985-3.2325 113.26 46.071 113.26 107.35 0 18.056-4.4748 35.061-12.34 50h159.84 252.5v-35-435h-1605zm75 37.5h217.5c19.33 0 35 15.67 35 35v80c0 19.33-15.67 35-35 35h-217.5c-19.33 0-35-15.67-35-35v-80c0-19.33 15.67-35 35-35zm315 0h217.5c19.33 0 35 15.67 35 35v80c0 19.33-15.67 35-35 35h-217.5c-19.33 0-35-15.67-35-35v-80c0-19.33 15.67-35 35-35zm315 0h217.5c19.33 0 35 15.67 35 35v80c0 19.33-15.67 35-35 35h-217.5c-19.33 0-35-15.67-35-35v-80c0-19.33 15.67-35 35-35zm315 0h217.5c19.33 0 35 15.67 35 35v80c0 19.33-15.67 35-35 35h-217.5c-19.33 0-35-15.67-35-35v-80c0-19.33 15.67-35 35-35z" fill="#ee3638"/>
<path id="path28" d="m-905.13 914.39c0 54.365-44.072 98.438-98.438 98.438-54.365 0-98.438-44.072-98.438-98.438 0-54.365 44.073-98.438 98.438-98.438s98.438 44.072 98.438 98.438" fill="#292929"/>
<path id="path32" d="m-953.48 914.39c0 27.668-22.429 50.095-50.095 50.095-27.668 0-50.096-22.428-50.096-50.095 0-27.668 22.429-50.095 50.096-50.095 27.666 0 50.095 22.428 50.095 50.095" fill="#ee3638"/>
<path id="path36" d="m347.37 914.39c0 54.365-44.072 98.438-98.438 98.438-54.365 0-98.438-44.072-98.438-98.438 0-54.365 44.072-98.438 98.438-98.438 54.365 0 98.438 44.072 98.438 98.438" fill="#292929"/>
<path id="path40" d="m299.02 914.39c0 27.668-22.429 50.095-50.095 50.095-27.668 0-50.096-22.428-50.096-50.095 0-27.668 22.429-50.095 50.096-50.095 27.666 0 50.095 22.428 50.095 50.095" fill="#ee3638"/>
</g>
<g fill="#2b2c2c">
<path id="path44" opacity=".756" d="m753.93 956.89h-252.5v-385c0-26.234 21.266-47.5 47.5-47.5h205v432.5z"/>
<path id="path48" opacity="0.116" d="m-558.57 674.39h-217.5c-19.33 0-35-15.67-35-35v-80c0-19.33 15.67-35 35-35h217.5c19.33 0 35 15.67 35 35v80c0 19.33-15.67 35-35 35"/>
<path id="path52" opacity="0.116" d="m-243.57 674.39h-217.5c-19.33 0-35-15.67-35-35v-80c0-19.33 15.67-35 35-35h217.5c19.33 0 35 15.67 35 35v80c0 19.33-15.67 35-35 35"/>
<path id="path60" opacity="0.116" d="m386.43 674.39h-217.5c-19.33 0-35-15.67-35-35v-80c0-19.33 15.67-35 35-35h217.5c19.33 0 35 15.67 35 35v80c0 19.33-15.67 35-35 35"/>
</g>
<g fill="#ee3638">
<path id="path62" d="m731.43 950.64h-10v-427.5h10v427.5z"/>
<path id="path64" d="m586.43 950.64h-10v-427.5h10v427.5z"/>
<path id="path68" d="m-1029.8 91.893c-60.061 0-108.75 48.689-108.75 108.75v273.75h1892.5v-296.25c0-47.635-38.615-86.25-86.25-86.25h-1697.5zm-16.25 41.25h168.75c19.33 0 35 15.67 35 35v80c0 19.33-15.67 35-35 35h-203.75c-19.33 0-35-15.67-35-35v-45c0-38.66 31.34-70 70-70zm256.25 0h217.5c19.33 0 35 15.67 35 35v80c0 19.33-15.67 35-35 35h-217.5c-19.33 0-35-15.67-35-35v-80c0-19.33 15.67-35 35-35zm315 0h217.5c19.33 0 35 15.67 35 35v80c0 19.33-15.67 35-35 35h-217.5c-19.33 0-35-15.67-35-35v-80c0-19.33 15.67-35 35-35zm315 0h217.5c19.33 0 35 15.67 35 35v80c0 19.33-15.67 35-35 35h-217.5c-19.33 0-35-15.67-35-35v-80c0-19.33 15.67-35 35-35zm315 0h217.5c19.33 0 35 15.67 35 35v80c0 19.33-15.67 35-35 35h-217.5c-19.33 0-35-15.67-35-35v-80c0-19.33 15.67-35 35-35zm312.5 0h182.5c38.66 0 70 31.34 70 70v45c0 19.33-15.67 35-35 35h-217.5c-19.33 0-35-15.67-35-35v-80c0-19.33 15.67-35 35-35z"/>
</g>
<g fill="#2b2c2c">
<path id="path72" opacity="0.116" d="m-572.32 283.14h-217.5c-19.33 0-35-15.67-35-35v-80c0-19.33 15.67-35 35-35h217.5c19.33 0 35 15.67 35 35v80c0 19.33-15.67 35-35 35"/>
<path id="path76" opacity="0.116" d="m-257.32 283.14h-217.5c-19.33 0-35-15.67-35-35v-80c0-19.33 15.67-35 35-35h217.5c19.33 0 35 15.67 35 35v80c0 19.33-15.67 35-35 35"/>
<path id="path80" opacity="0.116" d="m57.678 283.14h-217.5c-19.33 0-35-15.67-35-35v-80c0-19.33 15.67-35 35-35h217.5c19.33 0 35 15.67 35 35v80c0 19.33-15.67 35-35 35"/>
<path id="path84" opacity="0.116" d="m372.68 283.14h-217.5c-19.33 0-35-15.67-35-35v-80c0-19.33 15.67-35 35-35h217.5c19.33 0 35 15.67 35 35v80c0 19.33-15.67 35-35 35"/>
<path id="path88" opacity="0.116" d="m685.18 283.14h-217.5c-19.33 0-35-15.67-35-35v-80c0-19.33 15.67-35 35-35h182.5c38.66 0 70 31.34 70 70v45c0 19.33-15.67 35-35 35"/>
<path id="path92" opacity="0.116" d="m-1081.1 283.14h203.75c19.33 0 35-15.67 35-35v-80c0-19.33-15.67-35-35-35h-168.75c-38.66 0-70 31.34-70 70v45c0 19.33 15.67 35 35 35"/>
</g>
<g>
<path id="path96" d="m-1138.6 486.89v17.5h240c19.33 0 35 15.67 35 35v-52.5h-275zm275 132.5c0 19.33-15.67 35-35 35h-240v75l22.5-35 252.5-32.5v-42.5z" fill="#ee3638"/>
<path id="path100" opacity="0.116" d="m-898.57 654.39h-240v-150h240c19.33 0 35 15.67 35 35v80c0 19.33-15.67 35-35 35" fill="#2b2c2c"/>
<path id="path102" d="m-1001.1 331.89v127.5h1405.4v-127.5h-1405.4z" fill="#fff"/>
</g>
<g fill="#292929">
<path id="path106" d="m-723.12 786.17h12.628v45.062h22.119v10.564h-34.746v-55.626z"/>
<path id="path110" d="m-673.36 814.15c0 10.894 5.1163 18.569 13.535 18.569 8.5 0 13.37-8.0875 13.37-18.9 0-9.985-4.7875-18.569-13.452-18.569-8.5012 0-13.452 8.0888-13.452 18.9m40.192-0.74375c0 18.24-11.059 29.3-27.318 29.3-16.506 0-26.162-12.462-26.162-28.309 0-16.671 10.646-29.132 27.07-29.132 17.084 0 26.41 12.791 26.41 28.141"/>
<path id="path114" d="m-624.91 841.8v-55.626h14.69l11.555 20.386c3.3013 5.8588 6.6025 12.791 9.0788 19.065h0.2475c-0.825-7.3462-1.0725-14.856-1.0725-23.192v-16.259h11.554v55.626h-13.205l-11.884-21.458c-3.3025-5.9425-6.9325-13.122-9.6575-19.642l-0.2463 0.0825c0.33 7.345 0.495 15.185 0.495 24.264v16.754h-11.555z"/>
<path id="path118" d="m-555.33 832.31c1.0725 0.2475 2.8062 0.2475 4.3737 0.2475 11.39 0.0825 18.818-6.19 18.818-19.478 0.082-11.554-6.685-17.661-17.496-17.661-2.8063 0-4.6225 0.2475-5.695 0.495v36.396zm-12.628-45.391c4.6225-0.74375 10.648-1.1562 17.001-1.1562 10.564 0 17.415 1.8975 22.779 5.9425 5.7775 4.2912 9.4087 11.141 9.4087 20.962 0 10.648-3.8787 17.992-9.2437 22.531-5.8588 4.8688-14.772 7.18-25.668 7.18-6.52 0-11.141-0.4125-14.278-0.825v-54.635z"/>
<path id="path122" d="m-499.79 814.15c0 10.894 5.1162 18.569 13.535 18.569 8.5 0 13.37-8.0875 13.37-18.9 0-9.985-4.7863-18.569-13.452-18.569-8.5013 0-13.452 8.0888-13.452 18.9m40.192-0.74375c0 18.24-11.059 29.3-27.318 29.3-16.506 0-26.162-12.462-26.162-28.309 0-16.671 10.646-29.132 27.07-29.132 17.084 0 26.41 12.791 26.41 28.141"/>
<path id="path126" d="m-454.46 841.8v-55.626h14.69l11.555 20.386c3.3012 5.8588 6.6025 12.791 9.0787 19.065h0.2475c-0.825-7.3462-1.0725-14.856-1.0725-23.192v-16.259h11.554v55.626h-13.205l-11.884-21.458c-3.3025-5.9425-6.9325-13.122-9.6575-19.642l-0.2462 0.0825c0.33 7.345 0.495 15.185 0.495 24.264v16.754h-11.555z"/>
<path id="path130" d="m-360.2 796.74h-14.939v-10.564h42.751v10.564h-15.185v45.062h-12.628v-45.062z"/>
<path id="path134" d="m-313.24 810.85h4.9525c6.2713 0 9.9863-3.1362 9.9863-8.005 0-5.1162-3.4663-7.675-9.2438-7.7575-3.0537 0-4.7862 0.2475-5.695 0.4125v15.35zm-12.462-23.932c4.045-0.66125 10.069-1.1562 16.755-1.1562 8.2525 0 14.03 1.2375 17.991 4.375 3.3012 2.64 5.1162 6.52 5.1162 11.635 0 7.0988-5.0337 11.969-9.8212 13.701v0.2475c3.88 1.5675 6.025 5.2812 7.4287 10.399 1.7325 6.2725 3.4663 13.535 4.5388 15.681h-12.875c-0.9075-1.5688-2.2275-6.1075-3.8788-12.958-1.4862-6.9325-3.8787-8.8312-8.995-8.9125h-3.7975v21.87h-12.462v-54.882z"/>
<path id="path138" d="m-248.95 818.11-3.4663-11.801c-0.99-3.3012-1.98-7.4288-2.8062-10.729h-0.165c-0.825 3.3-1.65 7.5088-2.5588 10.729l-3.3 11.801h12.296zm-14.112 9.4088-3.9613 14.278h-13.04l17.001-55.626h16.506l17.249 55.626h-13.535l-4.2913-14.278h-15.929z"/>
<path id="path142" d="m-224.72 841.8v-55.626h14.691l11.554 20.386c3.3012 5.8588 6.6025 12.791 9.0787 19.065h0.2475c-0.825-7.3462-1.0725-14.856-1.0725-23.192v-16.259h11.554v55.626h-13.205l-11.884-21.458c-3.3012-5.9425-6.9325-13.122-9.6562-19.642l-0.2475 0.0825c0.3287 7.345 0.495 15.185 0.495 24.264v16.754h-11.555z"/>
<path id="path146" d="m-167.36 828.84c3.3837 1.7338 8.5837 3.4662 13.947 3.4662 5.7775 0 8.8313-2.3938 8.8313-6.025 0-3.465-2.6413-5.4462-9.325-7.8388-9.245-3.22-15.269-8.3362-15.269-16.425 0-9.4912 7.9224-16.752 21.045-16.752 6.2725 0 10.895 1.3188 14.195 2.805l-2.8063 10.151c-2.2275-1.0738-6.1888-2.64-11.636-2.64-5.4475 0-8.0875 2.475-8.0875 5.3638 0 3.5488 3.1363 5.1162 10.316 7.84 9.82 3.6312 14.442 8.7488 14.442 16.59 0 9.325-7.18 17.248-22.449 17.248-6.355 0-12.626-1.65-15.764-3.3838l2.5588-10.399z"/>
<path id="path150" d="m-110.74 812.17c1.0725 0.2475 2.3938 0.33125 4.2088 0.33125 6.6862 0 10.812-3.3838 10.812-9.0788 0-5.1175-3.5487-8.1712-9.8213-8.1712-2.5587 0-4.2912 0.2475-5.2 0.495v16.424zm-12.462-25.254c3.8799-0.66 9.3262-1.1562 17.002-1.1562 7.7576 0 13.288 1.4862 17 4.4575 3.5488 2.8062 5.9425 7.4275 5.9425 12.874 0 5.4475-1.815 10.07-5.1162 13.206-4.2913 4.0438-10.646 5.8588-18.074 5.8588-1.6512 0-3.1362-0.0825-4.2925-0.2475v19.89h-12.462v-54.882z"/>
<path id="path154" d="m-64.523 814.15c0 10.894 5.1174 18.569 13.535 18.569 8.5013 0 13.37-8.0875 13.37-18.9 0-9.985-4.7863-18.569-13.451-18.569-8.5013 0-13.454 8.0888-13.454 18.9m40.192-0.74375c0 18.24-11.057 29.3-27.316 29.3-16.506 0-26.164-12.462-26.164-28.309 0-16.671 10.648-29.132 27.07-29.132 17.084 0 26.41 12.791 26.41 28.141"/>
<path id="path158" d="m-3.6116 810.85h4.9525c6.2713 0 9.9863-3.1362 9.9863-8.005 0-5.1162-3.4663-7.675-9.2438-7.7575-3.0537 0-4.7862 0.2475-5.695 0.4125v15.35zm-12.462-23.932c4.045-0.66125 10.07-1.1562 16.755-1.1562 8.2525 0 14.03 1.2375 17.991 4.375 3.3012 2.64 5.1175 6.52 5.1175 11.635 0 7.0988-5.035 11.969-9.8225 13.701v0.2475c3.88 1.5675 6.0262 5.2812 7.4287 10.399 1.7338 6.2725 3.465 13.535 4.5388 15.681h-12.875c-0.9075-1.5688-2.2275-6.1075-3.8788-12.958-1.485-6.9325-3.8787-8.8312-8.9962-8.9125h-3.7963v21.87h-12.462v-54.882z"/>
<path id="path162" d="m43.598 796.74h-14.938v-10.564h42.751v10.564h-15.185v45.062h-12.629v-45.062z"/>
</g>
<path id="path164" d="m720.18 459.39h-242.32v-127.5h242.32v127.5z" fill="#402f2f"/>
<path id="path192" d="m753.93 956.89h-290.97v-19.024h290.97v19.024z" fill="#ee3638"/>
<g fill="#fff">
<path id="path6766" d="m502.75 426.55q1.4396 0 2.1832-0.63282 0.74355-0.63281 0.74355-1.8668 0-1.2182-0.74355-1.851-0.74356-0.64863-2.1832-0.64863h-3.3697v4.9992h3.3697zm0.20567 10.331q1.8352 0 2.7527-0.7752 0.9334-0.77519 0.9334-2.3414 0-1.5346-0.91758-2.294-0.91758-0.77519-2.7686-0.77519h-3.5754v6.1857h3.5754zm5.6637-8.4955q1.9617 0.56953 3.0375 2.1041t1.0758 3.7652q0 3.4172-2.3098 5.0941-2.3098 1.677-7.0242 1.677h-10.109v-23.62h9.1441q4.9201 0 7.1191 1.4871 2.2148 1.4871 2.2148 4.7619 0 1.7244-0.80683 2.9426-0.80684 1.2023-2.3414 1.7877z"/>
<path id="path6768" d="m526.63 427.88q1.9142 0 2.7369-0.71191 0.83848-0.71192 0.83848-2.3414 0-1.6137-0.83848-2.3098-0.82266-0.6961-2.7369-0.6961h-2.5629v6.0592h2.5629zm-2.5629 4.2082v8.9385h-6.0908v-23.62h9.3024q4.667 0 6.8344 1.5662 2.1832 1.5662 2.1832 4.9518 0 2.3414-1.1391 3.8443-1.1232 1.5029-3.4014 2.2148 1.2498 0.28477 2.2307 1.2973 0.99668 0.99668 2.0092 3.0375l3.3064 6.7078h-6.4863l-2.8793-5.8693q-0.87012-1.7719-1.7719-2.4205-0.88594-0.64863-2.373-0.64863h-1.7244z"/>
<path id="path6770" d="m542.91 417.4h6.0908v23.62h-6.0908v-23.62z"/>
<path id="path6772" d="m573.72 439.73q-1.677 0.87011-3.4963 1.3131-1.8193 0.44297-3.7969 0.44297-5.901 0-9.3498-3.2906-3.4488-3.3064-3.4488-8.9543 0-5.6637 3.4488-8.9543 3.4488-3.3064 9.3498-3.3064 1.9775 0 3.7969 0.44296 1.8193 0.44297 3.4963 1.3131v4.8885q-1.6928-1.1549-3.3381-1.6928-1.6453-0.53789-3.4646-0.53789-3.259 0-5.1258 2.0883t-1.8668 5.7586q0 3.6545 1.8668 5.7428t5.1258 2.0883q1.8193 0 3.4646-0.53789t3.3381-1.6928v4.8885z"/>
<path id="path6774" d="m578.79 417.4h6.0908v8.6221l8.7803-8.6221h7.0717l-11.375 11.185 12.546 12.435h-7.6254l-9.3973-9.3023v9.3023h-6.0908v-23.62z"/>
<path id="path6776" d="m615.17 417.4h6.0908v19.016h10.695v4.6037h-16.785v-23.62z"/>
<path id="path6778" d="m650.14 436.72h-9.5238l-1.5029 4.3031h-6.1225l8.7486-23.62h7.2615l8.7486 23.62h-6.1225l-1.4871-4.3031zm-8.0051-4.3822h6.4705l-3.2273-9.3973-3.2432 9.3973z"/>
<path id="path6780" d="m660.86 417.4h6.8027l8.5904 16.2v-16.2h5.7744v23.62h-6.8027l-8.5904-16.2v16.2h-5.7744v-23.62z"/>
<path id="path6782" d="m688.01 417.4h16.437v4.6037h-10.346v4.398h9.7295v4.6037h-9.7295v5.4106h10.695v4.6037h-16.785v-23.62z"/>
<path id="path6836" d="m559.72 372.95q4.4785 1.1567 6.7919 4.0336 2.3431 2.8472 2.3431 7.2664 0 6.5843-5.042 10.025-5.042 3.4108-14.711 3.4108-3.4108 0-6.8512-0.56352-3.4108-0.53386-6.7622-1.6312v-8.8087q3.2032 1.6016 6.347 2.432 3.1735 0.80079 6.2284 0.80079 4.5378 0 6.9402-1.5719 2.432-1.5719 2.432-4.5082 0-3.0252-2.4914-4.5675-2.4617-1.5719-7.2961-1.5719h-4.5675v-7.3554h4.8047q4.3005 0 6.4063-1.3346 2.1058-1.3643 2.1058-4.1226 0-2.5507-2.0465-3.9446-2.0465-1.394-5.7835-1.394-2.7583 0-5.5759 0.62284t-5.6055 1.8388v-8.3638q3.3811-0.94909 6.7029-1.4236 3.3218-0.47454 6.525-0.47454 8.6308 0 12.902 2.8472 4.3006 2.8176 4.3006 8.5121 0 3.8853-2.0465 6.3767-2.0465 2.4617-6.0504 3.4701z"/>
<path id="path6838" d="m594.81 377.01q-3.2032 0-4.9234 1.7499t-1.7202 5.0124 1.7202 5.0124q1.7202 1.7202 4.9234 1.7202 3.1735 0 4.8641-1.7202 1.6906-1.7499 1.6906-5.0124 0-3.2921-1.6906-5.0124-1.6906-1.7499-4.8641-1.7499zm-8.3342-3.7667q-4.0336-1.216-6.0801-3.737t-2.0465-6.2877q0-5.6055 4.1819-8.5418 4.1819-2.9362 12.279-2.9362 8.0376 0 12.219 2.9362 4.1819 2.9066 4.1819 8.5418 0 3.7667-2.0761 6.2877-2.0465 2.521-6.0801 3.737 4.5082 1.2457 6.7919 4.0633 2.3134 2.7879 2.3134 7.0588 0 6.5843-4.3895 9.9654-4.3599 3.3515-12.961 3.3515-8.6307 0-13.05-3.3515-4.3895-3.3811-4.3895-9.9654 0-4.2709 2.2837-7.0588 2.3134-2.8176 6.8216-4.0633zm2.6693-8.868q0 2.6396 1.4533 4.0633 1.4829 1.4236 4.2116 1.4236 2.6693 0 4.1226-1.4236t1.4533-4.0633q0-2.6396-1.4533-4.0336-1.4533-1.4236-4.1226-1.4236-2.7286 0-4.2116 1.4236-1.4533 1.4236-1.4533 4.0336z"/>
<path id="path6840" d="m637.04 377.01q-3.2032 0-4.9234 1.7499t-1.7202 5.0124 1.7202 5.0124q1.7202 1.7202 4.9234 1.7202 3.1735 0 4.8641-1.7202 1.6906-1.7499 1.6906-5.0124 0-3.2921-1.6906-5.0124-1.6906-1.7499-4.8641-1.7499zm-8.3342-3.7667q-4.0336-1.216-6.0801-3.737t-2.0465-6.2877q0-5.6055 4.1819-8.5418 4.1819-2.9362 12.279-2.9362 8.0376 0 12.219 2.9362 4.1819 2.9066 4.1819 8.5418 0 3.7667-2.0761 6.2877-2.0465 2.521-6.0801 3.737 4.5082 1.2457 6.7919 4.0633 2.3134 2.7879 2.3134 7.0588 0 6.5843-4.3895 9.9654-4.3599 3.3515-12.961 3.3515-8.6308 0-13.05-3.3515-4.3895-3.3811-4.3895-9.9654 0-4.2709 2.2837-7.0588 2.3134-2.8176 6.8216-4.0633zm2.6693-8.868q0 2.6396 1.4533 4.0633 1.483 1.4236 4.2116 1.4236 2.6693 0 4.1226-1.4236t1.4533-4.0633q0-2.6396-1.4533-4.0336-1.4533-1.4236-4.1226-1.4236-2.7286 0-4.2116 1.4236-1.4533 1.4236-1.4533 4.0336z"/>
</g>
<path id="path56" opacity="0.116" d="m71.428 674.39h-217.5c-19.33 0-35-15.67-35-35v-80c0-19.33 15.67-35 35-35h217.5c19.33 0 35 15.67 35 35v80c0 19.33-15.67 35-35 35" fill="#2b2c2c"/>
</g>
</g>
</svg>
